<?xml version="1.0" encoding="UTF-8" standalone="no"?>
<!-- CLEANED: 1606943384/3736c3a3be352621cabe3b80f38f7af4 -->
<!-- Created with Inkscape (http://www.inkscape.org/) -->
<svg
   xmlns:dc="http://purl.org/dc/elements/1.1/"
   xmlns:cc="http://creativecommons.org/ns#"
   xmlns:rdf="http://www.w3.org/1999/02/22-rdf-syntax-ns#"
   xmlns:svg="http://www.w3.org/2000/svg"
   xmlns="http://www.w3.org/2000/svg"
   xmlns:xlink="http://www.w3.org/1999/xlink"
   xmlns:sodipodi="http://sodipodi.sourceforge.net/DTD/sodipodi-0.dtd"
   xmlns:inkscape="http://www.inkscape.org/namespaces/inkscape"
   width="1080"
   height="1080"
   id="svg2"
   version="1.1"
   inkscape:version="0.48.3.1 r9886"
   sodipodi:docname="201203_Dok.svg">
  <defs
     id="defs4">
    <clipPath
       clipPathUnits="userSpaceOnUse"
       id="clipPath4106">
      <path
         sodipodi:nodetypes="ccccc"
         style="fill:#e6e6e6;stroke:none;display:inline"
         d="M -5.03990155,-4.959777452 1084.92511,-13.69330413 1093.658636,1076.271707 3.693625128,1085.005234 z"
         id="path4108" />
    </clipPath>
    <clipPath
       clipPathUnits="userSpaceOnUse"
       id="clipPath4188">
      <path
         id="path4190"
         d="M 1294.970396,10.0833567 2384.896461,22.77871512 2372.201103,1112.70478 1282.275037,1100.009422 z"
         style="fill:#ffd5d5;stroke:none;display:inline"
         sodipodi:nodetypes="ccccc" />
    </clipPath>
    <clipPath
       clipPathUnits="userSpaceOnUse"
       id="clipPath4632">
      <path
         style="fill:#ffd5d5;stroke:none;display:inline"
         d="M -5.652964965,-4.247821503 1073.53276,-157.4084248 1226.693364,921.7773005 147.5076381,1074.937904 z"
         id="path4634" />
    </clipPath>
    <clipPath
       clipPathUnits="userSpaceOnUse"
       id="clipPath4683">
      <path
         style="fill:#ffd5d5;stroke:none;display:inline"
         d="m 1294.601287,32.51934858 1089.54248,31.57822571 -31.578226,1089.54247971 -1089.54248,-31.578226 z"
         id="path4685" />
    </clipPath>
    <clipPath
       clipPathUnits="userSpaceOnUse"
       id="clipPath4770">
      <path
         style="fill:#ffd5d5;stroke:none;display:inline"
         d="M 2592.056321,123.6690233 3680.715733,177.7123884 3626.672368,1266.3718 2538.012956,1212.328435 z"
         id="path4772" />
    </clipPath>
    <clipPath
       clipPathUnits="userSpaceOnUse"
       id="clipPath4774">
      <path
         style="fill:#ffd5d5;stroke:none;display:inline"
         d="m 2595,-5 1090,0 0,1090 -1090,0 z"
         id="path4776" />
    </clipPath>
  </defs>
  <sodipodi:namedview
     id="base"
     pagecolor="#ffffff"
     bordercolor="#d2d2d2"
     borderopacity="1"
     inkscape:pageopacity="0.0"
     inkscape:pageshadow="2"
     inkscape:document-units="px"
     showgrid="false"
     showborder="true"
     inkscape:showpageshadow="false"
     showguides="true"
     inkscape:snap-global="false">
    <sodipodi:guide
       position="1080,1080"
       orientation="1080,0"
       id="guide3084" />
    <sodipodi:guide
       position="1080,0"
       orientation="0,-1080"
       id="guide3086" />
    <sodipodi:guide
       position="0,0"
       orientation="-1080,0"
       id="guide3088" />
    <sodipodi:guide
       position="0,1080"
       orientation="0,1080"
       id="guide3090" />
    <sodipodi:guide
       position="6280,1080"
       orientation="1080,0"
       id="guide3132" />
    <sodipodi:guide
       position="5200,0"
       orientation="-1080,0"
       id="guide3134" />
    <sodipodi:guide
       position="4980,1080"
       orientation="1080,0"
       id="guide3136" />
    <sodipodi:guide
       position="3900,0"
       orientation="-1080,0"
       id="guide3138" />
    <sodipodi:guide
       position="3680,1080"
       orientation="1080,0"
       id="guide3140" />
    <sodipodi:guide
       position="2600,0"
       orientation="-1080,0"
       id="guide3142" />
    <sodipodi:guide
       position="2380,1080"
       orientation="1080,0"
       id="guide3144" />
    <sodipodi:guide
       position="1300,0"
       orientation="-1080,0"
       id="guide3146" />
    <sodipodi:guide
       position="0,-1300"
       orientation="-1080,0"
       id="guide3180" />
    <sodipodi:guide
       position="1080,-1300"
       orientation="0,-1080"
       id="guide3182" />
    <sodipodi:guide
       position="1080,-220"
       orientation="1080,0"
       id="guide3184" />
    <sodipodi:guide
       position="0,-220"
       orientation="0,1080"
       id="guide3186" />
    <inkscape:grid
       type="xygrid"
       id="grid4146"
       empspacing="20"
       visible="true"
       enabled="true"
       snapvisiblegridlinesonly="true" />
  </sodipodi:namedview>
  <metadata
     id="metadata7">
    <rdf:RDF>
      <cc:Work
         rdf:about="">
        <dc:format>image/svg+xml</dc:format>
        <dc:type
           rdf:resource="http://purl.org/dc/dcmitype/StillImage" />
        <dc:title />
      </cc:Work>
    </rdf:RDF>
  </metadata>
  <g
     inkscape:label="XX_REF"
     inkscape:groupmode="layer"
     id="layer1"
     style="display:inline"
     sodipodi:insensitive="true">
    <path
       id="path3196"
       d="m -860,-810 8000,0 0,4000 -8000,0 z"
       style="fill:#f9f9f9;stroke:none"
       sodipodi:nodetypes="ccccc" />
    <path
       id="path3007"
       d="m 0,0 1080,0 0,1080 -1080,0 z"
       style="fill:#e6e6e6;stroke:none" />
    <path
       id="path3048"
       d="m 2600,0 1080,0 0,1080 -1080,0 z"
       style="fill:#e6e6e6;stroke:none"
       clip-path="url(#clipPath4774)" />
    <path
       style="fill:#e6e6e6;stroke:none"
       d="m 3900,0 1080,0 0,1080 -1080,0 z"
       id="path3054" />
    <path
       id="path3060"
       d="m 5200,0 1080,0 0,1080 -1080,0 z"
       style="fill:#e6e6e6;stroke:none" />
    <path
       style="fill:#e6e6e6;stroke:none"
       d="m 0,1300 1080,0 0,1080 -1080,0 z"
       id="path3148" />
    <path
       id="path3150"
       d="m 1300,1300 1080,0 0,1080 -1080,0 z"
       style="fill:#e6e6e6;stroke:none" />
    <path
       style="fill:#e6e6e6;stroke:none"
       d="m 2600,1300 1080,0 0,1080 -1080,0 z"
       id="path3152" />
    <path
       id="path3154"
       d="m 3900,1300 1080,0 0,1080 -1080,0 z"
       style="fill:#e6e6e6;stroke:none" />
    <path
       style="fill:#e6e6e6;stroke:none"
       d="m 5200,1300 1080,0 0,1080 -1080,0 z"
       id="path3156" />
    <path
       style="fill:#e6e6e6;stroke:none"
       d="m 1300,0 1080,0 0,1080 -1080,0 z"
       id="path4323" />
  </g>
  <g
     inkscape:groupmode="layer"
     id="layer4"
     inkscape:label="0010"
     style="display:none"
     sodipodi:insensitive="true">
    <image
       xlink:href="../src/fotos/IMG_5428.jpg"
       checksum="617efee626bf9131"
       clip-path="url(#clipPath4106)"
       transform="matrix(0.9999679001,0.0080124098,-0.0080124098,0.9999679001,0,0)"
       width="2122.229248"
       height="1394.619507"
       id="image4062"
       x="-256.4401855"
       y="-50.26968384" />
    <image
       xlink:href="../src/fotos/IMG_5428.jpg"
       checksum="617efee626bf9131"
       y="-23.11853981"
       x="-311.6601257"
       id="image4110"
       height="1809.541138"
       width="2753.626465"
       transform="matrix(0.99993217,-0.0116471178,0.0116471178,0.99993217,0,0)"
       clip-path="url(#clipPath4188)" />
    <image
       xlink:href="../src/fotos/IMG_5445.jpg"
       checksum="7b1886c3c5e55ffb"
       width="1190.137939"
       height="1785.206787"
       id="image4254"
       x="2534.423096"
       y="-465.7347412" />
    <image
       xlink:href="../src/fotos/IMG_5446.jpg"
       checksum="605cd395f8e6cd98"
       width="1311.079468"
       height="1966.619141"
       id="image4319"
       x="3879.552979"
       y="-519.348877" />
  </g>
  <g
     inkscape:groupmode="layer"
     id="layer5"
     inkscape:label="0020"
     style="display:inline"
     sodipodi:insensitive="true">
    <image
       xlink:href="../src/fotos/IMG_5452.jpg"
       checksum="9b71d04b339867f6"
       clip-path="url(#clipPath4632)"
       transform="matrix(0.990078647,0.1405143148,-0.1405143148,0.990078647,0,0)"
       width="2013.329102"
       height="1339.37085"
       id="image4403"
       x="-9.731218338"
       y="-158.1717682" />
    <image
       xlink:href="../src/fotos/IMG_5452.jpg"
       checksum="9b71d04b339867f6"
       y="15.41099167"
       x="609.5258789"
       id="image4636"
       height="1184.12085"
       width="1779.958862"
       transform="matrix(0.9995802569,-0.0289708493,0.0289708493,0.9995802569,0,0)"
       clip-path="url(#clipPath4683)" />
    <image
       xlink:href="../src/fotos/IMG_5453.jpg"
       checksum="01ad4288a86c807d"
       clip-path="url(#clipPath4770)"
       inkscape:transform-center-y="-300.0397249"
       inkscape:transform-center-x="45.72036544"
       transform="matrix(0.9987701025,-0.0495810689,0.0495810689,0.9987701025,0,0)"
       width="1164.564087"
       height="1746.845947"
       id="image4749"
       x="2552.734131"
       y="-440.9753418" />
  </g>
  <g
     id="g3200"
     inkscape:groupmode="layer"
     inkscape:label="XX_COVER"
     sodipodi:insensitive="true"
     style="display:inline">
    <path
       style="fill:#f9f9f9;stroke:none"
       d="m -860,-810 0,4000 8000,0 0,-4000 -8000,0 z M 0,0 1080,0 1080,1080 0,1080 0,0 z m 1300,0 1080,0 0,1080 -1080,0 0,-1080 z m 1300,0 1080,0 0,1080 -1080,0 0,-1080 z m 1300,0 1080,0 0,1080 -1080,0 0,-1080 z m 1300,0 1080,0 0,1080 -1080,0 0,-1080 z M 0,1300 l 1080,0 0,1080 -1080,0 0,-1080 z m 1300,0 1080,0 0,1080 -1080,0 0,-1080 z m 1300,0 1080,0 0,1080 -1080,0 0,-1080 z m 1300,0 1080,0 0,1080 -1080,0 0,-1080 z m 1300,0 1080,0 0,1080 -1080,0 0,-1080 z"
       id="path3202" />
  </g>
</svg>
